<!--?xml version="1.0" encoding="us-ascii" standalone="no"?--><svg xmlns="http://www.w3.org/2000/svg" xmlns:xlink="http://www.w3.org/1999/xlink" contentstyletype="text/css" height="202px" preserveAspectRatio="none" style="width:1084px;height:202px;background:#FFFFFF;" version="1.1" viewBox="0 0 1084 202" width="1084px" zoomAndPan="magnify"><defs></defs><g><!--class IDao--><g id="elem_IDao"><rect codeline="1" fill="#F1F1F1" height="64.2969" id="IDao" rx="2.5" ry="2.5" style="stroke:#181818;stroke-width:0.5;" width="92" x="7" y="7"></rect><ellipse cx="35.05" cy="23" fill="#B4A7E5" rx="11" ry="11" style="stroke:#181818;stroke-width:1.0;"></ellipse><path d="M30.9719,18.7656 L30.9719,16.6094 L38.3625,16.6094 L38.3625,18.7656 L35.8938,18.7656 L35.8938,26.8438 L38.3625,26.8438 L38.3625,29 L30.9719,29 L30.9719,26.8438 L33.4406,26.8438 L33.4406,18.7656 L30.9719,18.7656 Z " fill="#000000"></path><text fill="#000000" font-family="sans-serif" font-size="14" font-style="italic" lengthAdjust="spacing" textLength="31" x="51.95" y="27.8467">IDao</text><line style="stroke:#181818;stroke-width:0.5;" x1="8" x2="98" y1="39" y2="39"></line><line style="stroke:#181818;stroke-width:0.5;" x1="8" x2="98" y1="47" y2="47"></line><ellipse cx="18" cy="60.6484" fill="#84BE84" rx="3" ry="3" style="stroke:#038048;stroke-width:1.0;"></ellipse><text fill="#000000" font-family="sans-serif" font-size="14" lengthAdjust="spacing" textLength="66" x="27" y="63.9951">getDate()</text></g><!--class DaoImpl--><g id="elem_DaoImpl"><rect codeline="5" fill="#F1F1F1" height="64.2969" id="DaoImpl" rx="2.5" ry="2.5" style="stroke:#181818;stroke-width:0.5;" width="92" x="7" y="131.29"></rect><ellipse cx="23.8" cy="147.29" fill="#ADD1B2" rx="11" ry="11" style="stroke:#181818;stroke-width:1.0;"></ellipse><path d="M26.7688,152.9306 Q26.1906,153.2275 25.55,153.3681 Q24.9094,153.5244 24.2063,153.5244 Q21.7063,153.5244 20.3781,151.8838 Q19.0656,150.2275 19.0656,147.1025 Q19.0656,143.9775 20.3781,142.3213 Q21.7063,140.665 24.2063,140.665 Q24.9094,140.665 25.55,140.8213 Q26.2063,140.9775 26.7688,141.2744 L26.7688,143.9931 Q26.1438,143.415 25.55,143.1494 Q24.9563,142.8681 24.3313,142.8681 Q22.9875,142.8681 22.3,143.9463 Q21.6125,145.0088 21.6125,147.1025 Q21.6125,149.1963 22.3,150.2744 Q22.9875,151.3369 24.3313,151.3369 Q24.9563,151.3369 25.55,151.0713 Q26.1438,150.79 26.7688,150.2119 L26.7688,152.9306 Z " fill="#000000"></path><text fill="#000000" font-family="sans-serif" font-size="14" lengthAdjust="spacing" textLength="56" x="38.2" y="152.1367">DaoImpl</text><line style="stroke:#181818;stroke-width:0.5;" x1="8" x2="98" y1="163.29" y2="163.29"></line><line style="stroke:#181818;stroke-width:0.5;" x1="8" x2="98" y1="171.29" y2="171.29"></line><ellipse cx="18" cy="184.9384" fill="#84BE84" rx="3" ry="3" style="stroke:#038048;stroke-width:1.0;"></ellipse><text fill="#000000" font-family="sans-serif" font-size="14" lengthAdjust="spacing" textLength="66" x="27" y="188.2851">getDate()</text></g><!--class IMetier--><g id="elem_IMetier"><rect codeline="9" fill="#F1F1F1" height="64.2969" id="IMetier" rx="2.5" ry="2.5" style="stroke:#181818;stroke-width:0.5;" width="78" x="147" y="7"></rect><ellipse cx="162" cy="23" fill="#B4A7E5" rx="11" ry="11" style="stroke:#181818;stroke-width:1.0;"></ellipse><path d="M157.9219,18.7656 L157.9219,16.6094 L165.3125,16.6094 L165.3125,18.7656 L162.8438,18.7656 L162.8438,26.8438 L165.3125,26.8438 L165.3125,29 L157.9219,29 L157.9219,26.8438 L160.3906,26.8438 L160.3906,18.7656 L157.9219,18.7656 Z " fill="#000000"></path><text fill="#000000" font-family="sans-serif" font-size="14" font-style="italic" lengthAdjust="spacing" textLength="46" x="176" y="27.8467">IMetier</text><line style="stroke:#181818;stroke-width:0.5;" x1="148" x2="224" y1="39" y2="39"></line><line style="stroke:#181818;stroke-width:0.5;" x1="148" x2="224" y1="47" y2="47"></line><ellipse cx="158" cy="60.6484" fill="#84BE84" rx="3" ry="3" style="stroke:#038048;stroke-width:1.0;"></ellipse><text fill="#000000" font-family="sans-serif" font-size="14" lengthAdjust="spacing" textLength="49" x="167" y="63.9951">calcul()</text></g><!--class MetierImpl--><g id="elem_MetierImpl"><rect codeline="13" fill="#F1F1F1" height="64.2969" id="MetierImpl" rx="2.5" ry="2.5" style="stroke:#181818;stroke-width:0.5;" width="103" x="134.5" y="131.29"></rect><ellipse cx="149.5" cy="147.29" fill="#ADD1B2" rx="11" ry="11" style="stroke:#181818;stroke-width:1.0;"></ellipse><path d="M152.4688,152.9306 Q151.8906,153.2275 151.25,153.3681 Q150.6094,153.5244 149.9063,153.5244 Q147.4063,153.5244 146.0781,151.8838 Q144.7656,150.2275 144.7656,147.1025 Q144.7656,143.9775 146.0781,142.3213 Q147.4063,140.665 149.9063,140.665 Q150.6094,140.665 151.25,140.8213 Q151.9063,140.9775 152.4688,141.2744 L152.4688,143.9931 Q151.8438,143.415 151.25,143.1494 Q150.6563,142.8681 150.0313,142.8681 Q148.6875,142.8681 148,143.9463 Q147.3125,145.0088 147.3125,147.1025 Q147.3125,149.1963 148,150.2744 Q148.6875,151.3369 150.0313,151.3369 Q150.6563,151.3369 151.25,151.0713 Q151.8438,150.79 152.4688,150.2119 L152.4688,152.9306 Z " fill="#000000"></path><text fill="#000000" font-family="sans-serif" font-size="14" lengthAdjust="spacing" textLength="71" x="163.5" y="152.1367">MetierImpl</text><line style="stroke:#181818;stroke-width:0.5;" x1="135.5" x2="236.5" y1="163.29" y2="163.29"></line><line style="stroke:#181818;stroke-width:0.5;" x1="135.5" x2="236.5" y1="171.29" y2="171.29"></line><ellipse cx="145.5" cy="184.9384" fill="#84BE84" rx="3" ry="3" style="stroke:#038048;stroke-width:1.0;"></ellipse><text fill="#000000" font-family="sans-serif" font-size="14" lengthAdjust="spacing" textLength="49" x="154.5" y="188.2851">calcul()</text></g><!--class IDependencyInjection--><g id="elem_IDependencyInjection"><rect codeline="17" fill="#F1F1F1" height="64.2969" id="IDependencyInjection" rx="2.5" ry="2.5" style="stroke:#181818;stroke-width:0.5;" width="182" x="584" y="7"></rect><ellipse cx="599" cy="23" fill="#B4A7E5" rx="11" ry="11" style="stroke:#181818;stroke-width:1.0;"></ellipse><path d="M594.9219,18.7656 L594.9219,16.6094 L602.3125,16.6094 L602.3125,18.7656 L599.8438,18.7656 L599.8438,26.8438 L602.3125,26.8438 L602.3125,29 L594.9219,29 L594.9219,26.8438 L597.3906,26.8438 L597.3906,18.7656 L594.9219,18.7656 Z " fill="#000000"></path><text fill="#000000" font-family="sans-serif" font-size="14" font-style="italic" lengthAdjust="spacing" textLength="150" x="613" y="27.8467">IDependencyInjection</text><line style="stroke:#181818;stroke-width:0.5;" x1="585" x2="765" y1="39" y2="39"></line><line style="stroke:#181818;stroke-width:0.5;" x1="585" x2="765" y1="47" y2="47"></line><ellipse cx="595" cy="60.6484" fill="#84BE84" rx="3" ry="3" style="stroke:#038048;stroke-width:1.0;"></ellipse><text fill="#000000" font-family="sans-serif" font-size="14" lengthAdjust="spacing" textLength="149" x="604" y="63.9951">injectDependencies()</text></g><!--class StaticDI--><g id="elem_StaticDI"><rect codeline="21" fill="#F1F1F1" height="64.2969" id="StaticDI" rx="2.5" ry="2.5" style="stroke:#181818;stroke-width:0.5;" width="175" x="272.5" y="131.29"></rect><ellipse cx="329.75" cy="147.29" fill="#ADD1B2" rx="11" ry="11" style="stroke:#181818;stroke-width:1.0;"></ellipse><path d="M332.7188,152.9306 Q332.1406,153.2275 331.5,153.3681 Q330.8594,153.5244 330.1563,153.5244 Q327.6563,153.5244 326.3281,151.8838 Q325.0156,150.2275 325.0156,147.1025 Q325.0156,143.9775 326.3281,142.3213 Q327.6563,140.665 330.1563,140.665 Q330.8594,140.665 331.5,140.8213 Q332.1563,140.9775 332.7188,141.2744 L332.7188,143.9931 Q332.0938,143.415 331.5,143.1494 Q330.9063,142.8681 330.2813,142.8681 Q328.9375,142.8681 328.25,143.9463 Q327.5625,145.0088 327.5625,147.1025 Q327.5625,149.1963 328.25,150.2744 Q328.9375,151.3369 330.2813,151.3369 Q330.9063,151.3369 331.5,151.0713 Q332.0938,150.79 332.7188,150.2119 L332.7188,152.9306 Z " fill="#000000"></path><text fill="#000000" font-family="sans-serif" font-size="14" lengthAdjust="spacing" textLength="52" x="350.25" y="152.1367">StaticDI</text><line style="stroke:#181818;stroke-width:0.5;" x1="273.5" x2="446.5" y1="163.29" y2="163.29"></line><line style="stroke:#181818;stroke-width:0.5;" x1="273.5" x2="446.5" y1="171.29" y2="171.29"></line><ellipse cx="283.5" cy="184.9384" fill="#84BE84" rx="3" ry="3" style="stroke:#038048;stroke-width:1.0;"></ellipse><text fill="#000000" font-family="sans-serif" font-size="14" lengthAdjust="spacing" textLength="149" x="292.5" y="188.2851">injectDependencies()</text></g><!--class DynamicDI--><g id="elem_DynamicDI"><rect codeline="25" fill="#F1F1F1" height="64.2969" id="DynamicDI" rx="2.5" ry="2.5" style="stroke:#181818;stroke-width:0.5;" width="175" x="482.5" y="131.29"></rect><ellipse cx="529.25" cy="147.29" fill="#ADD1B2" rx="11" ry="11" style="stroke:#181818;stroke-width:1.0;"></ellipse><path d="M532.2188,152.9306 Q531.6406,153.2275 531,153.3681 Q530.3594,153.5244 529.6563,153.5244 Q527.1563,153.5244 525.8281,151.8838 Q524.5156,150.2275 524.5156,147.1025 Q524.5156,143.9775 525.8281,142.3213 Q527.1563,140.665 529.6563,140.665 Q530.3594,140.665 531,140.8213 Q531.6563,140.9775 532.2188,141.2744 L532.2188,143.9931 Q531.5938,143.415 531,143.1494 Q530.4063,142.8681 529.7813,142.8681 Q528.4375,142.8681 527.75,143.9463 Q527.0625,145.0088 527.0625,147.1025 Q527.0625,149.1963 527.75,150.2744 Q528.4375,151.3369 529.7813,151.3369 Q530.4063,151.3369 531,151.0713 Q531.5938,150.79 532.2188,150.2119 L532.2188,152.9306 Z " fill="#000000"></path><text fill="#000000" font-family="sans-serif" font-size="14" lengthAdjust="spacing" textLength="73" x="549.75" y="152.1367">DynamicDI</text><line style="stroke:#181818;stroke-width:0.5;" x1="483.5" x2="656.5" y1="163.29" y2="163.29"></line><line style="stroke:#181818;stroke-width:0.5;" x1="483.5" x2="656.5" y1="171.29" y2="171.29"></line><ellipse cx="493.5" cy="184.9384" fill="#84BE84" rx="3" ry="3" style="stroke:#038048;stroke-width:1.0;"></ellipse><text fill="#000000" font-family="sans-serif" font-size="14" lengthAdjust="spacing" textLength="149" x="502.5" y="188.2851">injectDependencies()</text></g><!--class SpringXML--><g id="elem_SpringXML"><rect codeline="29" fill="#F1F1F1" height="64.2969" id="SpringXML" rx="2.5" ry="2.5" style="stroke:#181818;stroke-width:0.5;" width="175" x="692.5" y="131.29"></rect><ellipse cx="739.75" cy="147.29" fill="#ADD1B2" rx="11" ry="11" style="stroke:#181818;stroke-width:1.0;"></ellipse><path d="M742.7188,152.9306 Q742.1406,153.2275 741.5,153.3681 Q740.8594,153.5244 740.1563,153.5244 Q737.6563,153.5244 736.3281,151.8838 Q735.0156,150.2275 735.0156,147.1025 Q735.0156,143.9775 736.3281,142.3213 Q737.6563,140.665 740.1563,140.665 Q740.8594,140.665 741.5,140.8213 Q742.1563,140.9775 742.7188,141.2744 L742.7188,143.9931 Q742.0938,143.415 741.5,143.1494 Q740.9063,142.8681 740.2813,142.8681 Q738.9375,142.8681 738.25,143.9463 Q737.5625,145.0088 737.5625,147.1025 Q737.5625,149.1963 738.25,150.2744 Q738.9375,151.3369 740.2813,151.3369 Q740.9063,151.3369 741.5,151.0713 Q742.0938,150.79 742.7188,150.2119 L742.7188,152.9306 Z " fill="#000000"></path><text fill="#000000" font-family="sans-serif" font-size="14" lengthAdjust="spacing" textLength="72" x="760.25" y="152.1367">SpringXML</text><line style="stroke:#181818;stroke-width:0.5;" x1="693.5" x2="866.5" y1="163.29" y2="163.29"></line><line style="stroke:#181818;stroke-width:0.5;" x1="693.5" x2="866.5" y1="171.29" y2="171.29"></line><ellipse cx="703.5" cy="184.9384" fill="#84BE84" rx="3" ry="3" style="stroke:#038048;stroke-width:1.0;"></ellipse><text fill="#000000" font-family="sans-serif" font-size="14" lengthAdjust="spacing" textLength="149" x="712.5" y="188.2851">injectDependencies()</text></g><!--class SpringAnnotations--><g id="elem_SpringAnnotations"><rect codeline="33" fill="#F1F1F1" height="64.2969" id="SpringAnnotations" rx="2.5" ry="2.5" style="stroke:#181818;stroke-width:0.5;" width="175" x="902.5" y="131.29"></rect><ellipse cx="924.7" cy="147.29" fill="#ADD1B2" rx="11" ry="11" style="stroke:#181818;stroke-width:1.0;"></ellipse><path d="M927.6688,152.9306 Q927.0906,153.2275 926.45,153.3681 Q925.8094,153.5244 925.1063,153.5244 Q922.6063,153.5244 921.2781,151.8838 Q919.9656,150.2275 919.9656,147.1025 Q919.9656,143.9775 921.2781,142.3213 Q922.6063,140.665 925.1063,140.665 Q925.8094,140.665 926.45,140.8213 Q927.1063,140.9775 927.6688,141.2744 L927.6688,143.9931 Q927.0438,143.415 926.45,143.1494 Q925.8563,142.8681 925.2313,142.8681 Q923.8875,142.8681 923.2,143.9463 Q922.5125,145.0088 922.5125,147.1025 Q922.5125,149.1963 923.2,150.2744 Q923.8875,151.3369 925.2313,151.3369 Q925.8563,151.3369 926.45,151.0713 Q927.0438,150.79 927.6688,150.2119 L927.6688,152.9306 Z " fill="#000000"></path><text fill="#000000" font-family="sans-serif" font-size="14" lengthAdjust="spacing" textLength="127" x="940.3" y="152.1367">SpringAnnotations</text><line style="stroke:#181818;stroke-width:0.5;" x1="903.5" x2="1076.5" y1="163.29" y2="163.29"></line><line style="stroke:#181818;stroke-width:0.5;" x1="903.5" x2="1076.5" y1="171.29" y2="171.29"></line><ellipse cx="913.5" cy="184.9384" fill="#84BE84" rx="3" ry="3" style="stroke:#038048;stroke-width:1.0;"></ellipse><text fill="#000000" font-family="sans-serif" font-size="14" lengthAdjust="spacing" textLength="149" x="922.5" y="188.2851">injectDependencies()</text></g><!--reverse link IDao to DaoImpl--><g id="link_IDao_DaoImpl"><path codeline="37" d="M53,89.64 C53,107.9 53,112.81 53,131.05 " fill="none" id="IDao-backto-DaoImpl" style="stroke:#181818;stroke-width:1.0;stroke-dasharray:7.0,7.0;"></path><polygon fill="none" points="53,71.64,47,89.64,59,89.64,53,71.64" style="stroke:#181818;stroke-width:1.0;"></polygon></g><!--reverse link IMetier to MetierImpl--><g id="link_IMetier_MetierImpl"><path codeline="38" d="M186,89.64 C186,107.9 186,112.81 186,131.05 " fill="none" id="IMetier-backto-MetierImpl" style="stroke:#181818;stroke-width:1.0;stroke-dasharray:7.0,7.0;"></path><polygon fill="none" points="186,71.64,180,89.64,192,89.64,186,71.64" style="stroke:#181818;stroke-width:1.0;"></polygon></g><!--reverse link IDependencyInjection to StaticDI--><g id="link_IDependencyInjection_StaticDI"><path codeline="39" d="M577.1004,78.1549 C530.2504,96.3449 488.29,112.64 441.39,130.84 " fill="none" id="IDependencyInjection-backto-StaticDI" style="stroke:#181818;stroke-width:1.0;stroke-dasharray:7.0,7.0;"></path><polygon fill="none" points="593.88,71.64,574.9287,72.5617,579.272,83.7481,593.88,71.64" style="stroke:#181818;stroke-width:1.0;"></polygon></g><!--reverse link IDependencyInjection to DynamicDI--><g id="link_IDependencyInjection_DynamicDI"><path codeline="40" d="M636.2334,85.2961 C620.5534,103.5561 612.61,112.81 596.95,131.05 " fill="none" id="IDependencyInjection-backto-DynamicDI" style="stroke:#181818;stroke-width:1.0;stroke-dasharray:7.0,7.0;"></path><polygon fill="none" points="647.96,71.64,631.6814,81.3872,640.7855,89.2049,647.96,71.64" style="stroke:#181818;stroke-width:1.0;"></polygon></g><!--reverse link IDependencyInjection to SpringXML--><g id="link_IDependencyInjection_SpringXML"><path codeline="41" d="M713.7666,85.2961 C729.4466,103.5561 737.39,112.81 753.05,131.05 " fill="none" id="IDependencyInjection-backto-SpringXML" style="stroke:#181818;stroke-width:1.0;stroke-dasharray:7.0,7.0;"></path><polygon fill="none" points="702.04,71.64,709.2145,89.2049,718.3186,81.3872,702.04,71.64" style="stroke:#181818;stroke-width:1.0;"></polygon></g><!--reverse link IDependencyInjection to SpringAnnotations--><g id="link_IDependencyInjection_SpringAnnotations"><path codeline="42" d="M772.8996,78.1549 C819.7496,96.3449 861.71,112.64 908.61,130.84 " fill="none" id="IDependencyInjection-backto-SpringAnnotations" style="stroke:#181818;stroke-width:1.0;stroke-dasharray:7.0,7.0;"></path><polygon fill="none" points="756.12,71.64,770.728,83.7481,775.0713,72.5617,756.12,71.64" style="stroke:#181818;stroke-width:1.0;"></polygon></g><!--SRC=[bP4n3i8m34Ntd28Z2AadO47A4ebENLYjO2gZrAcQC5J0tIb1QJDKRV5eFt_d_n07x6vWK6e5JZw57EfGOr0GSBSNRo6C1U_bCDLDQsS9caHA38HTeWnOyx2vp6-UA-LC9gImHRuYcrxp7KqWnsc3OcC427r-eGeGo2YzZLOzGxCThzgEkBwKvt_m4xFxFignNrkBdt1y5KNAMwH4OtDAJym65A4Km08okbwIILPNcSpV1m00]--></g></svg>